<mxfile host="app.diagrams.net" agent="Mozilla/5.0 (Windows NT 10.0; Win64; x64) AppleWebKit/537.36 (KHTML, like Gecko) Chrome/138.0.0.0 Safari/537.36" version="28.0.5">
  <diagram name="Seite-1" id="VZUpCasN7EifRcKKrMI3">
    <mxGraphModel dx="1213" dy="764" grid="1" gridSize="10" guides="1" tooltips="1" connect="1" arrows="1" fold="1" page="1" pageScale="1" pageWidth="827" pageHeight="1169" math="0" shadow="0">
      <root>
        <mxCell id="0" />
        <mxCell id="1" parent="0" />
        <mxCell id="7f1RePoS6G2i0OCe9mkJ-2" value="" style="rounded=0;whiteSpace=wrap;html=1;" vertex="1" parent="1">
          <mxGeometry x="180" y="190" width="800" height="470" as="geometry" />
        </mxCell>
        <mxCell id="7f1RePoS6G2i0OCe9mkJ-3" value="mongod" style="rounded=1;whiteSpace=wrap;html=1;fillColor=#e51400;fontColor=#ffffff;strokeColor=#B20000;" vertex="1" parent="1">
          <mxGeometry x="340" y="217" width="546" height="60" as="geometry" />
        </mxCell>
        <mxCell id="7f1RePoS6G2i0OCe9mkJ-4" value="" style="endArrow=none;dashed=1;html=1;dashPattern=1 3;strokeWidth=2;rounded=0;exitX=-0.004;exitY=0.27;exitDx=0;exitDy=0;entryX=1;entryY=0.273;entryDx=0;entryDy=0;entryPerimeter=0;exitPerimeter=0;" edge="1" parent="1" source="7f1RePoS6G2i0OCe9mkJ-2" target="7f1RePoS6G2i0OCe9mkJ-2">
          <mxGeometry width="50" height="50" relative="1" as="geometry">
            <mxPoint x="390" y="420" as="sourcePoint" />
            <mxPoint x="440" y="370" as="targetPoint" />
            <Array as="points" />
          </mxGeometry>
        </mxCell>
        <mxCell id="7f1RePoS6G2i0OCe9mkJ-5" value="" style="endArrow=none;dashed=1;html=1;dashPattern=1 3;strokeWidth=2;rounded=0;exitX=0.002;exitY=0.52;exitDx=0;exitDy=0;exitPerimeter=0;" edge="1" parent="1" source="7f1RePoS6G2i0OCe9mkJ-2">
          <mxGeometry width="50" height="50" relative="1" as="geometry">
            <mxPoint x="199" y="437" as="sourcePoint" />
            <mxPoint x="982" y="435" as="targetPoint" />
            <Array as="points" />
          </mxGeometry>
        </mxCell>
        <mxCell id="7f1RePoS6G2i0OCe9mkJ-6" value="Server&lt;div&gt;/&lt;/div&gt;&lt;div&gt;Instance&lt;/div&gt;" style="text;html=1;align=center;verticalAlign=middle;whiteSpace=wrap;rounded=0;" vertex="1" parent="1">
          <mxGeometry x="190" y="223" width="70" height="48" as="geometry" />
        </mxCell>
        <mxCell id="7f1RePoS6G2i0OCe9mkJ-7" value="Database" style="text;html=1;align=center;verticalAlign=middle;whiteSpace=wrap;rounded=0;" vertex="1" parent="1">
          <mxGeometry x="191" y="348" width="70" height="48" as="geometry" />
        </mxCell>
        <mxCell id="7f1RePoS6G2i0OCe9mkJ-11" style="edgeStyle=orthogonalEdgeStyle;rounded=0;orthogonalLoop=1;jettySize=auto;html=1;entryX=0.5;entryY=0;entryDx=0;entryDy=0;" edge="1" parent="1" source="7f1RePoS6G2i0OCe9mkJ-8" target="7f1RePoS6G2i0OCe9mkJ-10">
          <mxGeometry relative="1" as="geometry" />
        </mxCell>
        <mxCell id="7f1RePoS6G2i0OCe9mkJ-8" value="monitoring-system-app" style="rounded=1;whiteSpace=wrap;html=1;fillColor=#6d8764;fontColor=#ffffff;strokeColor=#3A5431;" vertex="1" parent="1">
          <mxGeometry x="473" y="336" width="280" height="54" as="geometry" />
        </mxCell>
        <mxCell id="7f1RePoS6G2i0OCe9mkJ-9" value="Collection" style="text;html=1;align=center;verticalAlign=middle;whiteSpace=wrap;rounded=0;" vertex="1" parent="1">
          <mxGeometry x="191" y="500" width="70" height="48" as="geometry" />
        </mxCell>
        <mxCell id="7f1RePoS6G2i0OCe9mkJ-1" value="" style="dashed=0;outlineConnect=0;html=1;align=center;labelPosition=center;verticalLabelPosition=bottom;verticalAlign=top;shape=mxgraph.webicons.mongodb;gradientColor=#DFDEDE;fillColor=default;strokeColor=none;" vertex="1" parent="1">
          <mxGeometry x="179" y="610" width="60" height="70" as="geometry" />
        </mxCell>
        <mxCell id="7f1RePoS6G2i0OCe9mkJ-10" value="Query-&lt;br&gt;Scope" style="rounded=1;whiteSpace=wrap;html=1;fillColor=#647687;fontColor=#ffffff;strokeColor=#314354;" vertex="1" parent="1">
          <mxGeometry x="423" y="440" width="380" height="200" as="geometry" />
        </mxCell>
        <mxCell id="7f1RePoS6G2i0OCe9mkJ-12" value="" style="whiteSpace=wrap;html=1;aspect=fixed;dashed=1;fillColor=none;strokeColor=light-dark(#000000,#000000);" vertex="1" parent="1">
          <mxGeometry x="620" y="460" width="160" height="160" as="geometry" />
        </mxCell>
        <mxCell id="7f1RePoS6G2i0OCe9mkJ-13" value="sensor-data" style="text;html=1;align=center;verticalAlign=middle;whiteSpace=wrap;rounded=0;" vertex="1" parent="1">
          <mxGeometry x="574" y="450" width="60" height="30" as="geometry" />
        </mxCell>
        <mxCell id="7f1RePoS6G2i0OCe9mkJ-14" value="Doc1" style="sketch=0;outlineConnect=0;fontColor=#232F3E;gradientColor=none;fillColor=#232F3D;strokeColor=none;dashed=0;verticalLabelPosition=bottom;verticalAlign=top;align=center;html=1;fontSize=12;fontStyle=0;aspect=fixed;pointerEvents=1;shape=mxgraph.aws4.document;" vertex="1" parent="1">
          <mxGeometry x="723.77" y="470" width="29.23" height="40" as="geometry" />
        </mxCell>
        <mxCell id="7f1RePoS6G2i0OCe9mkJ-15" value="Doc3" style="sketch=0;outlineConnect=0;fontColor=#232F3E;gradientColor=none;fillColor=#232F3D;strokeColor=none;dashed=0;verticalLabelPosition=bottom;verticalAlign=top;align=center;html=1;fontSize=12;fontStyle=0;aspect=fixed;pointerEvents=1;shape=mxgraph.aws4.document;" vertex="1" parent="1">
          <mxGeometry x="634" y="471" width="29.23" height="40" as="geometry" />
        </mxCell>
        <mxCell id="7f1RePoS6G2i0OCe9mkJ-16" value="Doc2&lt;br&gt;timestamp-metadata-value" style="sketch=0;outlineConnect=0;fontColor=#232F3E;gradientColor=none;fillColor=#232F3D;strokeColor=none;dashed=0;verticalLabelPosition=bottom;verticalAlign=top;align=center;html=1;fontSize=12;fontStyle=0;aspect=fixed;pointerEvents=1;shape=mxgraph.aws4.document;" vertex="1" parent="1">
          <mxGeometry x="685.38" y="530" width="29.23" height="40" as="geometry" />
        </mxCell>
        <mxCell id="7f1RePoS6G2i0OCe9mkJ-25" style="edgeStyle=orthogonalEdgeStyle;rounded=0;orthogonalLoop=1;jettySize=auto;html=1;" edge="1" parent="1" source="7f1RePoS6G2i0OCe9mkJ-23" target="7f1RePoS6G2i0OCe9mkJ-16">
          <mxGeometry relative="1" as="geometry" />
        </mxCell>
        <mxCell id="7f1RePoS6G2i0OCe9mkJ-23" value="timestamp.index" style="rounded=1;whiteSpace=wrap;html=1;fillColor=#1ba1e2;fontColor=#ffffff;strokeColor=#006EAF;" vertex="1" parent="1">
          <mxGeometry x="430" y="461" width="120" height="60" as="geometry" />
        </mxCell>
        <mxCell id="7f1RePoS6G2i0OCe9mkJ-26" style="edgeStyle=orthogonalEdgeStyle;rounded=0;orthogonalLoop=1;jettySize=auto;html=1;" edge="1" parent="1" source="7f1RePoS6G2i0OCe9mkJ-24" target="7f1RePoS6G2i0OCe9mkJ-16">
          <mxGeometry relative="1" as="geometry" />
        </mxCell>
        <mxCell id="7f1RePoS6G2i0OCe9mkJ-24" value="metadata.index" style="rounded=1;whiteSpace=wrap;html=1;fillColor=#1ba1e2;fontColor=#ffffff;strokeColor=#006EAF;" vertex="1" parent="1">
          <mxGeometry x="430" y="548" width="120" height="60" as="geometry" />
        </mxCell>
        <mxCell id="7f1RePoS6G2i0OCe9mkJ-27" value="...." style="rounded=1;whiteSpace=wrap;html=1;fillColor=#647687;fontColor=#ffffff;strokeColor=#314354;" vertex="1" parent="1">
          <mxGeometry x="840" y="445" width="123" height="190" as="geometry" />
        </mxCell>
      </root>
    </mxGraphModel>
  </diagram>
</mxfile>
